<svg xmlns="http://www.w3.org/2000/svg" viewBox="0 0 32 32" width="32" height="32">
  <!-- Gold rounded square background -->
  <rect width="32" height="32" rx="7" fill="#C4A044"/>
  <!-- Ticket icon outline in dark red -->
  <path
    d="M6 11.5 C6 10.4 6.9 9.5 8 9.5 L24 9.5 C25.1 9.5 26 10.4 26 11.5 L26 13.5 C24.9 13.5 24 14.4 24 15.5 C24 16.6 24.9 17.5 26 17.5 L26 20.5 C26 21.6 25.1 22.5 24 22.5 L8 22.5 C6.9 22.5 6 21.6 6 20.5 L6 17.5 C7.1 17.5 8 16.6 8 15.5 C8 14.4 7.1 13.5 6 13.5 Z"
    fill="none"
    stroke="#3D0008"
    stroke-width="1.5"
    stroke-linejoin="round"
  />
  <!-- Dashed vertical line in middle of ticket -->
  <line x1="16" y1="11.5" x2="16" y2="22.5" stroke="#3D0008" stroke-width="1.2" stroke-dasharray="2,2"/>
</svg>
